<svg xmlns="http://www.w3.org/2000/svg" width="1032.925" height="1202.387" viewBox="0 0 1032.925 1202.387"><defs><style>.a{fill:#fff;stroke:#eee9e8;}.b{fill:#f2a180;}.c{fill:#eff8ff;}</style></defs><g transform="translate(-1092.824 296.042)"><path class="a" d="M3524.921-204.585c-95.039,7.555-265.26,52.012-322.474,267.861s101.423,231.454-65.015,382.286-101.448,351.925-2.247,459.422,323.58,145.71,498.961-66.734,5.2-293.866,218.45-457.7S4103.891,127.661,4037.722,7.633s-137.579-165.285-241.6-193.891S3619.96-212.141,3524.921-204.585Z" transform="translate(-1942 -86)"/><path class="b" d="M76.463-57.821C189.719-31.511,362.887,81.385,362.887,150.144s-52.933,78.35-163.914,48.872-266.2-68.971-266.2-137.73S-36.792-84.131,76.463-57.821Z" transform="translate(1617 680)"/><path class="c" d="M120.15-23.559c3.171.737,102.6-31.514,158.3-23.819,65.884,6.6,86.4,61.043,86.4,127.877,0,68.76-67.62,104.958-177.744,102.582S32.544,163.071,31.318,121.752,15.877,16.883,120.15-23.559Z" transform="matrix(-0.999, 0.035, -0.035, -0.999, 1471.868, 122.009)"/></g></svg>