<svg xmlns="http://www.w3.org/2000/svg" width="40" height="40" viewBox="0 0 40 40"><defs><style>.a{fill:none;}.b{fill:#2267a1;}</style></defs><path class="a" d="M0,0H40V40H0Z"/><path class="b" d="M19.333,11l1.681,4.018.815,1.947,2.08.175,4.281.368-3.259,2.86-1.577,1.386.468,2.07.971,4.228-3.675-2.246-1.785-1.123-1.785,1.088-3.675,2.246.971-4.228.468-2.07-1.577-1.386-3.259-2.86,4.281-.368,2.08-.175.815-1.947L19.333,11m0-9L14.463,13.632,2,14.7,11.464,23,8.621,35.333l10.712-6.544,10.712,6.544L27.2,23l9.464-8.3L24.2,13.632Z" transform="translate(0.667 0.667)"/></svg>